<?xml version="1.0" encoding="UTF-8"?>
<svg width="30px" height="30px" viewBox="0 0 30 30" version="1.1" xmlns="http://www.w3.org/2000/svg" xmlns:xlink="http://www.w3.org/1999/xlink">
    <title>ico-support</title>
    <g id="Page-1" stroke="none" stroke-width="1" fill="none" fill-rule="evenodd">
        <g id="design" transform="translate(-643.000000, -258.000000)">
            <g id="Group-7-Copy" transform="translate(302.000000, 247.000000)">
                <g id="Group-5" transform="translate(341.000000, 11.000000)">
                    <circle id="Oval" fill="#D4AF4B" cx="15" cy="15" r="15"></circle>
                    <path d="M13.1845703,17.7070312 C13.8108724,17.7070312 14.4075521,17.5906576 14.9746094,17.3579102 C15.5416667,17.1251628 16.0494792,16.788737 16.4980469,16.3486328 C16.938151,15.9169922 17.2788086,15.4155273 17.5200195,14.8442383 C17.7612305,14.2729492 17.8860677,13.6783854 17.8945313,13.0605469 C17.9029948,12.4257812 17.788737,11.8185221 17.5517578,11.2387695 C17.3147786,10.6590169 16.976237,10.1448568 16.5361328,9.69628906 C16.0960286,9.24772135 15.5882161,8.90494792 15.0126953,8.66796875 C14.4371745,8.43098958 13.8320313,8.3125 13.1972656,8.3125 C12.5709635,8.3125 11.9700521,8.43310547 11.3945313,8.67431641 C10.8190104,8.91552734 10.3069661,9.26041667 9.85839844,9.70898438 C9.41829427,10.1575521 9.0797526,10.6695964 8.84277344,11.2451172 C8.60579427,11.820638 8.49153646,12.4215495 8.5,13.0478516 L8.5,13.0478516 L8.5,17.1992188 C8.5,17.3007812 8.52750651,17.3938802 8.58251953,17.4785156 C8.63753255,17.563151 8.71158854,17.6266276 8.8046875,17.6689453 C8.83854167,17.6774089 8.87239583,17.6858724 8.90625,17.6943359 C8.94010417,17.7027995 8.97395833,17.7070312 9.0078125,17.7070312 C9.06705729,17.7070312 9.12630208,17.6964518 9.18554688,17.675293 C9.24479167,17.6541341 9.29980469,17.6223958 9.35058594,17.5800781 C9.35058594,17.5800781 9.45638021,17.4954427 9.66796875,17.3261719 C9.87955729,17.156901 10.1419271,17.0722656 10.4550781,17.0722656 C10.5566406,17.0722656 10.660319,17.0849609 10.7661133,17.1103516 C10.8719076,17.1357422 10.9755859,17.1738281 11.0771484,17.2246094 C11.398763,17.3854167 11.7351888,17.5060221 12.0864258,17.5864258 C12.4376628,17.6668294 12.7994792,17.7070312 13.171875,17.7070312 L13.171875,17.7070312 L13.1845703,17.7070312 Z M13.171875,16.6914062 C12.8841146,16.6914062 12.6027018,16.659668 12.3276367,16.5961914 C12.0525716,16.5327148 11.7880859,16.4375 11.5341797,16.3105469 C11.3649089,16.2259115 11.1871745,16.1624349 11.0009766,16.1201172 C10.8147786,16.0777995 10.6328125,16.0566406 10.4550781,16.0566406 C10.2942708,16.0566406 10.1355794,16.0714518 9.97900391,16.1010742 C9.82242839,16.1306966 9.66796875,16.179362 9.515625,16.2470703 L9.515625,16.2470703 L9.515625,13.0478516 C9.50716146,12.5569661 9.59602865,12.0851237 9.78222656,11.6323242 C9.96842448,11.1795247 10.235026,10.7753906 10.5820313,10.4199219 C10.9375,10.0729167 11.3395182,9.80419922 11.7880859,9.61376953 C12.2366536,9.42333984 12.7063802,9.328125 13.1972656,9.328125 C13.6966146,9.328125 14.1705729,9.42122396 14.6191406,9.60742188 C15.0677083,9.79361979 15.4654948,10.0602214 15.8125,10.4072266 C16.1595052,10.7626953 16.4261068,11.1668294 16.6123047,11.6196289 C16.7985026,12.0724284 16.8873698,12.5485026 16.8789062,13.0478516 C16.8704427,13.5472005 16.7688802,14.0211589 16.5742188,14.4697266 C16.3795573,14.9098307 16.1150716,15.2949219 15.7807617,15.625 C15.4464518,15.9550781 15.055013,16.2132161 14.6064453,16.3994141 C14.1578776,16.5940755 13.6796875,16.6914062 13.171875,16.6914062 Z M15.1777344,13.6699219 C15.3554688,13.6699219 15.5056966,13.6085612 15.628418,13.4858398 C15.7511393,13.3631185 15.8125,13.2128906 15.8125,13.0351562 C15.8125,12.8574219 15.7511393,12.707194 15.628418,12.5844727 C15.5056966,12.4617513 15.3554688,12.4003906 15.1777344,12.4003906 C15,12.4003906 14.8497721,12.4617513 14.7270508,12.5844727 C14.6043294,12.707194 14.5429688,12.8574219 14.5429688,13.0351562 C14.5429688,13.2128906 14.6043294,13.3631185 14.7270508,13.4858398 C14.8497721,13.6085612 15,13.6699219 15.1777344,13.6699219 Z M13.171875,13.6699219 C13.3496094,13.6699219 13.4998372,13.6085612 13.6225586,13.4858398 C13.7452799,13.3631185 13.8066406,13.2128906 13.8066406,13.0351562 C13.8066406,12.8574219 13.7452799,12.707194 13.6225586,12.5844727 C13.4998372,12.4617513 13.3496094,12.4003906 13.171875,12.4003906 C12.9941406,12.4003906 12.8439128,12.4617513 12.7211914,12.5844727 C12.5984701,12.707194 12.5371094,12.8574219 12.5371094,13.0351562 C12.5371094,13.2128906 12.5984701,13.3631185 12.7211914,13.4858398 C12.8439128,13.6085612 12.9941406,13.6699219 13.171875,13.6699219 Z M11.1660156,13.6699219 C11.34375,13.6699219 11.4939779,13.6085612 11.6166992,13.4858398 C11.7394206,13.3631185 11.8007813,13.2128906 11.8007813,13.0351562 C11.8007813,12.8574219 11.7394206,12.707194 11.6166992,12.5844727 C11.4939779,12.4617513 11.34375,12.4003906 11.1660156,12.4003906 C10.9882813,12.4003906 10.8380534,12.4617513 10.715332,12.5844727 C10.5926107,12.707194 10.53125,12.8574219 10.53125,13.0351562 C10.53125,13.2128906 10.5926107,13.3631185 10.715332,13.4858398 C10.8380534,13.6085612 10.9882813,13.6699219 11.1660156,13.6699219 Z M20.9921875,21.3125 C21.1783854,21.3125 21.3095703,21.2532552 21.3857422,21.1347656 C21.4619141,21.016276 21.5,20.90625 21.5,20.8046875 L21.5,20.8046875 L21.5,16.6533203 C21.5,16.2809245 21.4576823,15.9127604 21.3730469,15.5488281 C21.2884115,15.1933594 21.1656901,14.8505859 21.0048828,14.5205078 C20.8440755,14.1904297 20.6451823,13.8815104 20.4082031,13.59375 C20.171224,13.3059896 19.9003906,13.0520833 19.5957031,12.8320312 C19.4856771,12.7473958 19.3608398,12.7156576 19.2211914,12.7368164 C19.081543,12.7579753 18.969401,12.8235677 18.8847656,12.9335938 C18.8001302,13.0436198 18.7683919,13.168457 18.7895508,13.3081055 C18.8107096,13.4477539 18.8763021,13.5598958 18.9863281,13.6445312 C19.4602865,14 19.8305664,14.4422201 20.097168,14.9711914 C20.3637695,15.5001628 20.4928385,16.0608724 20.484375,16.6533203 L20.484375,16.6533203 L20.484375,19.8525391 C20.1627604,19.7171224 19.8263346,19.6536458 19.4750977,19.6621094 C19.1238607,19.6705729 18.7874349,19.7552083 18.4658203,19.9160156 C18.2119141,20.0429688 17.9474284,20.1381836 17.6723633,20.2016602 C17.3972982,20.2651367 17.1158854,20.296875 16.828125,20.296875 C16.2356771,20.296875 15.6791992,20.167806 15.1586914,19.909668 C14.6381836,19.6515299 14.2044271,19.2897135 13.8574219,18.8242188 C13.7727865,18.7141927 13.6606445,18.6486003 13.5209961,18.6274414 C13.3813477,18.6062826 13.2565104,18.6380208 13.1464844,18.7226562 C13.0364583,18.8072917 12.9708659,18.9194336 12.949707,19.059082 C12.9285482,19.1987305 12.9602865,19.3235677 13.0449219,19.4335938 C13.264974,19.7298177 13.5146484,19.9964193 13.7939453,20.2333984 C14.0732422,20.4619141 14.3758138,20.6565755 14.7016602,20.8173828 C15.0275065,20.9781901 15.3681641,21.1009115 15.7236328,21.1855469 C16.0791016,21.2701823 16.4472656,21.3125 16.828125,21.3125 C17.2005208,21.3125 17.5623372,21.2722982 17.9135742,21.1918945 C18.2648112,21.1114909 18.601237,20.9908854 18.9228516,20.8300781 C19.1936849,20.6946615 19.4793294,20.6502279 19.7797852,20.6967773 C20.0802409,20.7433268 20.3404948,20.8766276 20.5605469,21.0966797 C20.5690104,21.1051432 20.613444,21.1432292 20.6938477,21.2109375 C20.7742513,21.2786458 20.8736979,21.3125 20.9921875,21.3125 Z" id="" fill="#FFFFFF" fill-rule="nonzero"></path>
                </g>
            </g>
        </g>
    </g>
</svg>