<?xml version="1.0" encoding="UTF-8"?>
<svg width="30px" height="30px" viewBox="0 0 30 30" version="1.1" xmlns="http://www.w3.org/2000/svg" xmlns:xlink="http://www.w3.org/1999/xlink">
    <title>ico-tafaseer</title>
    <g id="Page-1" stroke="none" stroke-width="1" fill="none" fill-rule="evenodd">
        <g id="design" transform="translate(-983.000000, -257.000000)">
            <g id="Group-7-Copy" transform="translate(302.000000, 247.000000)">
                <g id="Group" transform="translate(681.000000, 10.000000)">
                    <circle id="Oval" fill="#8BA841" cx="15" cy="15" r="15"></circle>
                    <path d="M18.9529394,10.2766473 L19.0089757,10.2741002 L20.9651531,10.062181 C21.0412267,10.0513134 21.1064326,10.0132766 21.1607709,9.94807066 C21.2151091,9.88286475 21.2368444,9.80679118 21.2259768,9.71984996 L21.2259768,9.71984996 L21.0955649,8.52984205 C21.0846973,8.44290083 21.0466605,8.37226109 20.9814546,8.31792283 C20.9162487,8.26358457 20.8401751,8.24184926 20.7532339,8.25271691 L20.7532339,8.25271691 L18.813358,8.48093761 C18.7264168,8.49180526 18.655777,8.52984205 18.6014388,8.59504796 C18.5471005,8.66025387 18.5253652,8.73089361 18.5362328,8.80696718 L18.5362328,8.80696718 L18.6829461,10.0132766 C18.6938138,10.1002178 18.7318506,10.1681406 18.7970565,10.2170451 C18.8622624,10.2659495 18.9329021,10.2849679 19.0089757,10.2741002 L18.9529394,10.2766473 Z M10.499604,10.2088943 C10.5865452,10.2088943 10.6599019,10.1790083 10.719674,10.1192362 C10.7794461,10.0594641 10.8093321,9.98610744 10.8093321,9.89916623 L10.8093321,9.89916623 L10.8093321,8.69285683 C10.8093321,8.60591561 10.7794461,8.53255896 10.719674,8.47278687 C10.6599019,8.41301478 10.5865452,8.38312874 10.499604,8.38312874 L10.499604,8.38312874 L8.54342661,8.38312874 C8.46735304,8.38312874 8.39943022,8.41301478 8.33965813,8.47278687 C8.27988604,8.53255896 8.25,8.60591561 8.25,8.69285683 L8.25,8.69285683 L8.25,9.89916623 C8.25,9.98610744 8.27988604,10.0594641 8.33965813,10.1192362 C8.39943022,10.1790083 8.46735304,10.2088943 8.54342661,10.2088943 L8.54342661,10.2088943 L10.499604,10.2088943 Z M17.8352693,10.2088943 C17.9222105,10.2088943 17.9955671,10.1762914 18.0553392,10.1110854 C18.1151113,10.0458795 18.1449974,9.97523979 18.1449974,9.89916623 L18.1449974,9.89916623 L18.1449974,8.69285683 C18.1449974,8.60591561 18.1151113,8.53255896 18.0553392,8.47278687 C17.9955671,8.41301478 17.9222105,8.38312874 17.8352693,8.38312874 L17.8352693,8.38312874 L15.8790919,8.38312874 C15.7921507,8.38312874 15.718794,8.41301478 15.6590219,8.47278687 C15.5992498,8.53255896 15.5693638,8.60591561 15.5693638,8.69285683 L15.5693638,8.69285683 L15.5693638,9.89916623 C15.5693638,9.98610744 15.5992498,10.0594641 15.6590219,10.1192362 C15.718794,10.1790083 15.7921507,10.2088943 15.8790919,10.2088943 L15.8790919,10.2088943 L17.8352693,10.2088943 Z M14.4445618,12.2954835 C14.531503,12.2954835 14.6048596,12.2655975 14.6646317,12.2058254 C14.7244038,12.1460533 14.7542899,12.0726967 14.7542899,11.9857555 L14.7542899,11.9857555 L14.7542899,10.7957475 C14.7542899,10.7088063 14.7244038,10.6354497 14.6646317,10.5756776 C14.6048596,10.5159055 14.531503,10.4860194 14.4445618,10.4860194 L14.4445618,10.4860194 L11.9341341,10.4860194 C11.8471929,10.4860194 11.7738362,10.5159055 11.7140641,10.5756776 C11.6542921,10.6354497 11.624406,10.7088063 11.624406,10.7957475 L11.624406,10.7957475 L11.624406,11.9857555 C11.624406,12.0726967 11.6542921,12.1460533 11.7140641,12.2058254 C11.7738362,12.2655975 11.8471929,12.2954835 11.9341341,12.2954835 L11.9341341,12.2954835 L14.4445618,12.2954835 Z M18.9609769,11.6651597 L18.9926742,11.6597259 L21.2911827,11.3989022 C21.3237856,11.3989022 21.3509548,11.3853177 21.3726901,11.3581485 C21.3944254,11.3309794 21.405293,11.2956595 21.405293,11.2521889 L21.405293,11.2521889 L21.3563886,10.7794461 C21.3346533,10.7033725 21.280315,10.6653357 21.1933738,10.6653357 L21.1933738,10.6653357 L18.9111668,10.9261594 C18.8785639,10.9261594 18.8486778,10.9424608 18.8215087,10.9750638 C18.7943396,11.0076668 18.7861888,11.0402697 18.7970565,11.0728727 L18.7970565,11.0728727 L18.8459609,11.5456155 C18.8568286,11.5890861 18.875847,11.6216891 18.9030161,11.6434244 C18.9301852,11.6651597 18.9600713,11.6705935 18.9926742,11.6597259 L18.9609769,11.6651597 Z M10.6789203,11.5782185 C10.7115232,11.5782185 10.7414093,11.5646339 10.7685784,11.5374648 C10.7957475,11.5102957 10.8093321,11.4804096 10.8093321,11.4478067 L10.8093321,11.4478067 L10.8093321,10.9750638 C10.8093321,10.9315932 10.7957475,10.8962733 10.7685784,10.8691042 C10.7414093,10.8419351 10.7115232,10.8283505 10.6789203,10.8283505 L10.6789203,10.8283505 L8.38041183,10.8283505 C8.33694122,10.8283505 8.30433826,10.8419351 8.28260296,10.8691042 C8.26086765,10.8962733 8.25,10.9315932 8.25,10.9750638 L8.25,10.9750638 L8.25,11.4478067 C8.25,11.4804096 8.26086765,11.5102957 8.28260296,11.5374648 C8.30433826,11.5646339 8.33694122,11.5782185 8.38041183,11.5782185 L8.38041183,11.5782185 L10.6789203,11.5782185 Z M17.9982841,11.5782185 C18.0417547,11.5782185 18.0770745,11.5646339 18.1042437,11.5374648 C18.1314128,11.5102957 18.1449974,11.4804096 18.1449974,11.4478067 L18.1449974,11.4478067 L18.1449974,10.9750638 C18.1449974,10.9315932 18.1314128,10.8962733 18.1042437,10.8691042 C18.0770745,10.8419351 18.0471885,10.8283505 18.0145855,10.8283505 L18.0145855,10.8283505 L15.6997756,10.8283505 C15.6671727,10.8283505 15.6372866,10.8419351 15.6101175,10.8691042 C15.5829483,10.8962733 15.5693638,10.9315932 15.5693638,10.9750638 L15.5693638,10.9750638 L15.5693638,11.4478067 C15.5693638,11.4804096 15.5829483,11.5102957 15.6101175,11.5374648 C15.6372866,11.5646339 15.6671727,11.5782185 15.6997756,11.5782185 L15.6997756,11.5782185 L17.9982841,11.5782185 Z M20.274378,21.5231391 L20.3456969,21.5221203 L22.187764,21.3102011 C22.2855729,21.2884658 22.3643633,21.2395613 22.4241354,21.1634878 C22.4839075,21.0874142 22.5083597,21.000473 22.4974921,20.9026641 L22.4974921,20.9026641 L21.5357049,12.3769909 C21.5248372,12.2791821 21.4813666,12.1976747 21.405293,12.1324688 C21.3292195,12.0672628 21.2422782,12.0400937 21.1444694,12.0509614 L21.1444694,12.0509614 L19.3024023,12.2628806 C19.2045935,12.2846159 19.1230861,12.3335203 19.0578801,12.4095939 C18.9926742,12.4856675 18.9655051,12.5726087 18.9763728,12.6704175 L18.9763728,12.6704175 L19.93816,21.1960907 C19.9598953,21.2938996 20.0087997,21.375407 20.0848733,21.4406129 C20.1609468,21.5058188 20.2478881,21.5329879 20.3456969,21.5221203 L20.274378,21.5231391 Z M10.4506996,21.5221203 C10.5593761,21.5221203 10.6490342,21.4868004 10.719674,21.4161607 C10.7903137,21.3455209 10.8256336,21.2558628 10.8256336,21.1471863 L10.8256336,21.1471863 L10.8256336,12.5726087 C10.8256336,12.4747998 10.7903137,12.3905755 10.719674,12.3199358 C10.6490342,12.249296 10.5593761,12.2139762 10.4506996,12.2139762 L10.4506996,12.2139762 L8.60863252,12.2139762 C8.51082365,12.2139762 8.42659935,12.249296 8.35595961,12.3199358 C8.28531987,12.3905755 8.25,12.4747998 8.25,12.5726087 L8.25,12.5726087 L8.25,21.1471863 C8.25,21.2558628 8.28531987,21.3455209 8.35595961,21.4161607 C8.42659935,21.4868004 8.51082365,21.5221203 8.60863252,21.5221203 L8.60863252,21.5221203 L10.4506996,21.5221203 Z M17.7863648,21.5221203 C17.8841737,21.5221203 17.968398,21.4868004 18.0390378,21.4161607 C18.1096775,21.3455209 18.1449974,21.2558628 18.1449974,21.1471863 L18.1449974,21.1471863 L18.1449974,12.5726087 C18.1449974,12.4747998 18.1096775,12.3905755 18.0390378,12.3199358 C17.968398,12.249296 17.8841737,12.2139762 17.7863648,12.2139762 L17.7863648,12.2139762 L15.9279963,12.2139762 C15.8301874,12.2139762 15.7459631,12.249296 15.6753234,12.3199358 C15.6046837,12.3905755 15.5693638,12.4747998 15.5693638,12.5726087 L15.5693638,12.5726087 L15.5693638,21.1471863 C15.5693638,21.2558628 15.6046837,21.3455209 15.6753234,21.4161607 C15.7459631,21.4868004 15.8301874,21.5221203 15.9279963,21.5221203 L15.9279963,21.5221203 L17.7863648,21.5221203 Z M14.623878,13.6648077 C14.656481,13.6648077 14.686367,13.6539401 14.7135362,13.6322048 C14.7407053,13.6104695 14.7542899,13.5778665 14.7542899,13.5343959 L14.7542899,13.5343959 L14.7542899,13.061653 C14.7542899,13.0181824 14.7407053,12.9855795 14.7135362,12.9638442 C14.686367,12.9421089 14.656481,12.9312412 14.623878,12.9312412 L14.623878,12.9312412 L11.7548178,12.9312412 C11.7222149,12.9312412 11.6923288,12.9421089 11.6651597,12.9638442 C11.6379906,12.9855795 11.624406,13.0181824 11.624406,13.061653 L11.624406,13.061653 L11.624406,13.5343959 C11.624406,13.5778665 11.6379906,13.6104695 11.6651597,13.6322048 C11.6923288,13.6539401 11.7222149,13.6648077 11.7548178,13.6648077 L11.7548178,13.6648077 L14.623878,13.6648077 Z M14.3141499,21.5221203 C14.4336941,21.5221203 14.5396537,21.4868004 14.6320288,21.4161607 C14.7244038,21.3455209 14.7705913,21.2612966 14.7705913,21.1634878 L14.7705913,21.1634878 L14.7705913,14.7081023 C14.7705913,14.6102935 14.7244038,14.5260692 14.6320288,14.4554294 C14.5396537,14.3847897 14.4336941,14.3494698 14.3141499,14.3494698 L14.3141499,14.3494698 L12.0645459,14.3494698 C11.9450018,14.3494698 11.8417591,14.3847897 11.7548178,14.4554294 C11.6678766,14.5260692 11.624406,14.6102935 11.624406,14.7081023 L11.624406,14.7081023 L11.624406,21.1634878 C11.624406,21.2612966 11.6678766,21.3455209 11.7548178,21.4161607 C11.8417591,21.4868004 11.9450018,21.5221203 12.0645459,21.5221203 L12.0645459,21.5221203 L14.3141499,21.5221203 Z M16.8571806,20.8537597 C16.7050334,20.8537597 16.5719047,20.7967045 16.4577944,20.6825942 C16.343684,20.5684838 16.2866288,20.4299212 16.2866288,20.2669065 C16.2866288,20.1038917 16.343684,19.968046 16.4577944,19.8593695 C16.5719047,19.750693 16.7077504,19.6963547 16.8653313,19.6963547 C17.0229123,19.6963547 17.156041,19.7534099 17.2647175,19.8675202 C17.3733941,19.9816306 17.4277323,20.1174762 17.4277323,20.2750572 C17.4277323,20.4326382 17.3733941,20.5684838 17.2647175,20.6825942 C17.156041,20.7967045 17.0201954,20.8537597 16.8571806,20.8537597 Z M10.4017951,20.8211567 L8.65753696,20.8211567 L8.65753696,20.3973183 L10.4017951,20.3973183 L10.4017951,20.8211567 Z" id="" fill="#FFFFFF" fill-rule="nonzero"></path>
                </g>
            </g>
        </g>
    </g>
</svg>