<?xml version="1.0" encoding="utf-8"?>
<!-- Generator: Adobe Illustrator 25.0.0, SVG Export Plug-In . SVG Version: 6.00 Build 0)  -->
<svg version="1.1" id="Layer_1" xmlns="http://www.w3.org/2000/svg" xmlns:xlink="http://www.w3.org/1999/xlink" x="0px" y="0px"
	 viewBox="0 0 30 30" style="enable-background:new 0 0 30 30;" xml:space="preserve">
<style type="text/css">
	.st0{fill-rule:evenodd;clip-rule:evenodd;fill:#0F6E3D;}
	.st1{fill-rule:evenodd;clip-rule:evenodd;fill:#FFFFFF;}
</style>
<circle id="Oval" class="st0" cx="15" cy="15" r="15"/>
<path id="Fill-1" class="st1" d="M23.6,12.1L16,16.7c-0.1,0.1-0.5,0.3-0.6,0.3c-0.3,0.3-0.2,0.2-0.2,0.7c0.4,0,1.9-1.1,2.3-1.3
	l3.3-2.1c0.4-0.3,0.8-0.5,1.2-0.7l2.2-1.4c-0.8-1.5-1-2.7-2.1-3.2C22.3,9.6,23.5,11.6,23.6,12.1L23.6,12.1z M6,12.2
	c1.4,0.8,8.3,5.3,9,5.5v-0.6c-0.7-0.5-1.4-0.9-2.1-1.3l-5.2-3.2c-0.3-0.2-0.8-0.5-1.1-0.6C6.8,11.5,7.9,9.8,8.1,9
	C7.1,9.6,6.8,10.7,6,12.2L6,12.2z M7.6,12.2c0.7,0.5,6.4,3.9,6.8,4c0.3-0.2,0.2-0.3,0.6-0.4c-0.1-0.3-0.3-0.5-0.5-0.8l-1.3-1.2
	c-0.9-0.7-4.3-1.6-4.3-2.1c0-0.5,0.8-1.7,1-2.3c-1,0.1-1,0.5-1.3,1.1L7.6,12.2z M21.6,11.8c-0.8,0.5-0.6,0.6-1.7,0.9
	c-1.7,0.6-2.1,0.7-3.4,1.8c-0.2,0.2-0.5,0.4-0.7,0.6c-0.2,0.2-0.5,0.6-0.6,0.8c0.1,0.1,0.4,0.4,0.6,0.5c0.4-0.1,2.9-1.7,3.4-2
	c0.5-0.3,3-1.9,3.4-2c0-0.4-0.6-1.3-0.8-1.7c-0.4-0.7-0.4-1.1-1.4-1.2L21.6,11.8z M15.5,18c0.7,0.2,5.4,3.4,6.1,3.5
	c0-0.3,0.1-0.2,0.1-0.4c0-0.1-0.5-1.2-0.6-1.3c-0.3-0.3-2.9-1.5-3.2-2.5c0.7,0.4,1.5,1,1.9,1c0.1-0.3,0-0.2,0.2-0.4
	c-1.7-0.9-1.5-1.1-2.1-0.7c0.3-0.9,1-0.1,2.1,0.5c-0.2-0.9-0.9-1.5-1.8-1.7l-2.1,1.3C15.8,17.6,15.6,17.7,15.5,18L15.5,18z
	 M12.3,17.3c-1-0.2-1,0.5-2,0.7c0,0.3,0,0.3,0.1,0.5c0.4-0.1,0.6-0.3,0.9-0.5c0.4-0.2,0.6-0.4,0.9-0.6C12,18.6,9.5,19.3,9,20.1
	c-0.2,0.3-1,1.8,0,1.3c0.9-0.4,5.2-3.3,5.7-3.4c-0.1-0.3-0.3-0.4-0.6-0.5c-0.3-0.2-0.5-0.3-0.8-0.4c-0.5-0.3-1-0.6-1.4-0.9
	c-0.3,0.1-0.9,0.4-1.1,0.6c-0.2,0.1-0.6,0.9-0.7,1.1C11.5,17.2,11.8,16.6,12.3,17.3L12.3,17.3z M10.2,9.3c1.1,0.6,4.7,1.5,4.8,3h0.2
	c0.2-0.9,1.2-1.5,2-1.9c0.4-0.2,0.9-0.4,1.4-0.6c0.6-0.2,0.9-0.4,1.4-0.6l1.1,2.3c-0.5,0.7-2.2,1-3.3,1.5c-0.7,0.4-2.4,1.4-2.6,2.2
	H15c-0.2-0.7-1.9-1.9-2.6-2.2c-0.9-0.4-2.9-0.9-3.3-1.5L10.2,9.3z"/>
</svg>
