<?xml version="1.0" encoding="UTF-8"?>
<svg width="30px" height="30px" viewBox="0 0 30 30" version="1.1" xmlns="http://www.w3.org/2000/svg" xmlns:xlink="http://www.w3.org/1999/xlink">
    <title>ico-options</title>
    <g id="Page-1" stroke="none" stroke-width="1" fill="none" fill-rule="evenodd">
        <g id="design" transform="translate(-1116.000000, -258.000000)">
            <g id="Group-7-Copy" transform="translate(302.000000, 247.000000)">
                <g id="Group" transform="translate(814.000000, 11.000000)">
                    <circle id="Oval" fill="#A84141" cx="15" cy="15" r="15"></circle>
                    <path d="M17.3359375,21.3125 C17.7591146,21.3125 18.1526693,21.2320964 18.5166016,21.0712891 C18.8889974,20.9104818 19.2127279,20.6925456 19.487793,20.4174805 C19.7628581,20.1424154 19.9807943,19.8186849 20.1416016,19.4462891 C20.3024089,19.0823568 20.3828125,18.6888021 20.3828125,18.265625 L20.3828125,18.265625 L20.3828125,11.359375 C20.3828125,10.9361979 20.3024089,10.5426432 20.1416016,10.1787109 C19.9807943,9.8063151 19.7628581,9.48258464 19.487793,9.20751953 C19.2127279,8.93245443 18.8889974,8.71451823 18.5166016,8.55371094 C18.1526693,8.39290365 17.7591146,8.3125 17.3359375,8.3125 L17.3359375,8.3125 L12.6640625,8.3125 C12.2408854,8.3125 11.8473307,8.39290365 11.4833984,8.55371094 C11.1110026,8.71451823 10.7872721,8.93245443 10.512207,9.20751953 C10.2371419,9.48258464 10.0192057,9.8063151 9.85839844,10.1787109 C9.69759115,10.5426432 9.6171875,10.9361979 9.6171875,11.359375 L9.6171875,11.359375 L9.6171875,18.265625 C9.6171875,18.6888021 9.69759115,19.0823568 9.85839844,19.4462891 C10.0192057,19.8186849 10.2371419,20.1424154 10.512207,20.4174805 C10.7872721,20.6925456 11.1110026,20.9104818 11.4833984,21.0712891 C11.8473307,21.2320964 12.2408854,21.3125 12.6640625,21.3125 L12.6640625,21.3125 L17.3359375,21.3125 Z M17.3359375,20.296875 L12.6640625,20.296875 C12.1054688,20.296875 11.6272786,20.0979818 11.2294922,19.7001953 C10.8317057,19.3024089 10.6328125,18.8242188 10.6328125,18.265625 L10.6328125,18.265625 L10.6328125,11.359375 C10.6328125,10.8007812 10.8317057,10.3225911 11.2294922,9.92480469 C11.6272786,9.52701823 12.1054688,9.328125 12.6640625,9.328125 L12.6640625,9.328125 L17.3359375,9.328125 C17.8945312,9.328125 18.3727214,9.52701823 18.7705078,9.92480469 C19.1682943,10.3225911 19.3671875,10.8007812 19.3671875,11.359375 L19.3671875,11.359375 L19.3671875,18.265625 C19.3671875,18.8242188 19.1682943,19.3024089 18.7705078,19.7001953 C18.3727214,20.0979818 17.8945312,20.296875 17.3359375,20.296875 L17.3359375,20.296875 Z M15.9648438,12.578125 C16.4557292,12.578125 16.8746745,12.4046224 17.2216797,12.0576172 C17.5686849,11.710612 17.7421875,11.2916667 17.7421875,10.8007812 C17.7421875,10.656901 17.6935221,10.5362956 17.5961914,10.4389648 C17.4988607,10.3416341 17.3782552,10.2929688 17.234375,10.2929688 C17.0904948,10.2929688 16.9698893,10.3416341 16.8725586,10.4389648 C16.7752279,10.5362956 16.7265625,10.656901 16.7265625,10.8007812 C16.7265625,11.0123698 16.6525065,11.1922201 16.5043945,11.340332 C16.3562826,11.488444 16.1764323,11.5625 15.9648438,11.5625 L14.0351562,11.5625 C13.8235677,11.5625 13.6437174,11.488444 13.4956055,11.340332 C13.3474935,11.1922201 13.2734375,11.0123698 13.2734375,10.8007812 C13.2734375,10.656901 13.2247721,10.5362956 13.1274414,10.4389648 C13.0301107,10.3416341 12.9095052,10.2929688 12.765625,10.2929688 C12.6217448,10.2929688 12.5011393,10.3416341 12.4038086,10.4389648 C12.3064779,10.5362956 12.2578125,10.656901 12.2578125,10.8007812 C12.2578125,11.2916667 12.4313151,11.710612 12.7783203,12.0576172 C13.1253255,12.4046224 13.5442708,12.578125 14.0351562,12.578125 L15.9648438,12.578125 Z M14.6445312,17.859375 C14.8561198,17.859375 15.0592448,17.8191732 15.2539062,17.7387695 C15.4485677,17.6583659 15.6178385,17.5419922 15.7617188,17.3896484 L17.7675781,15.3710938 C17.8691406,15.2695312 17.9199219,15.1489258 17.9199219,15.0092773 C17.9199219,14.8696289 17.8691406,14.7532552 17.7675781,14.6601562 C17.6660156,14.5585938 17.5454102,14.5078125 17.4057617,14.5078125 C17.2661133,14.5078125 17.1497396,14.5585938 17.0566406,14.6601562 L15.0507812,16.6787109 C14.9915365,16.7294922 14.9280599,16.769694 14.8603516,16.7993164 C14.7926432,16.8289388 14.7207031,16.84375 14.6445312,16.84375 C14.5683594,16.84375 14.4964193,16.8289388 14.4287109,16.7993164 C14.3610026,16.769694 14.3017578,16.7294922 14.2509766,16.6787109 L13.2734375,15.7011719 C13.1803385,15.5996094 13.0639648,15.5488281 12.9243164,15.5488281 C12.784668,15.5488281 12.6640625,15.5953776 12.5625,15.6884766 C12.4609375,15.7900391 12.4101562,15.9106445 12.4101562,16.050293 C12.4101562,16.1899414 12.4609375,16.3105469 12.5625,16.4121094 L13.5273438,17.3896484 C13.6796875,17.5419922 13.8510742,17.6583659 14.0415039,17.7387695 C14.2319336,17.8191732 14.4329427,17.859375 14.6445312,17.859375 Z" id="" fill="#FFFFFF" fill-rule="nonzero"></path>
                </g>
            </g>
        </g>
    </g>
</svg>