<?xml version="1.0" encoding="UTF-8"?>
<svg width="30px" height="30px" viewBox="0 0 30 30" version="1.1" xmlns="http://www.w3.org/2000/svg" xmlns:xlink="http://www.w3.org/1999/xlink">
    <title>ico-tlawat</title>
    <g id="Page-1" stroke="none" stroke-width="1" fill="none" fill-rule="evenodd">
        <g id="design" transform="translate(-776.000000, -257.000000)">
            <g id="Group-7-Copy" transform="translate(302.000000, 247.000000)">
                <g id="ico-tlawat" transform="translate(474.000000, 10.000000)">
                    <g id="Group-5" fill="#3D84BB">
                        <circle id="Oval" cx="15" cy="15" r="15"></circle>
                    </g>
                    <path d="M14.59375,17.25 C15.1523438,17.25 15.6305339,17.0511068 16.0283203,16.6533203 C16.4261068,16.2555339 16.625,15.7773438 16.625,15.21875 L16.625,10.34375 C16.625,9.78515625 16.4261068,9.30696615 16.0283203,8.90917969 C15.6305339,8.51139323 15.1523438,8.3125 14.59375,8.3125 C14.0351562,8.3125 13.5569661,8.51139323 13.1591797,8.90917969 C12.7613932,9.30696615 12.5625,9.78515625 12.5625,10.34375 L12.5625,15.21875 C12.5625,15.7773438 12.7613932,16.2555339 13.1591797,16.6533203 C13.5569661,17.0511068 14.0351562,17.25 14.59375,17.25 Z M16.625,21.3125 L16.625,20.5 L15,20.5 L15,18.8496094 C15.4570312,18.7988281 15.8844401,18.671875 16.2822266,18.46875 C16.6715495,18.2571615 17.012207,17.988444 17.3041992,17.6625977 C17.5961914,17.3367513 17.8268229,16.9664714 17.9960938,16.5517578 C18.1653646,16.1370443 18.25,15.6927083 18.25,15.21875 L18.25,14 L17.4375,14 L17.4375,15.21875 C17.4375,15.6080729 17.3613281,15.976237 17.2089844,16.3232422 C17.0651042,16.6702474 16.8640951,16.972819 16.605957,17.230957 C16.347819,17.4890951 16.0452474,17.6901042 15.6982422,17.8339844 C15.351237,17.9863281 14.9830729,18.0625 14.59375,18.0625 C14.2044271,18.0625 13.836263,17.9863281 13.4892578,17.8339844 C13.1422526,17.6901042 12.839681,17.4890951 12.581543,17.230957 C12.3234049,16.972819 12.1223958,16.6702474 11.9785156,16.3232422 C11.8261719,15.976237 11.75,15.6080729 11.75,15.21875 L11.75,14 L10.9375,14 L10.9375,15.21875 C10.9375,15.6927083 11.0221354,16.1370443 11.1914062,16.5517578 C11.3606771,16.9664714 11.5913086,17.3367513 11.8833008,17.6625977 C12.175293,17.988444 12.5159505,18.2571615 12.9052734,18.46875 C13.3030599,18.671875 13.7304688,18.7988281 14.1875,18.8496094 L14.1875,20.5 L12.5625,20.5 L12.5625,21.3125 L16.625,21.3125 Z" id="" fill="#FFFFFF" fill-rule="nonzero"></path>
                </g>
            </g>
        </g>
    </g>
</svg>