<?xml version="1.0" encoding="UTF-8"?>
<svg width="30px" height="30px" viewBox="0 0 30 30" version="1.1" xmlns="http://www.w3.org/2000/svg" xmlns:xlink="http://www.w3.org/1999/xlink">
    <title>ico-final-data</title>
    <g id="Page-1" stroke="none" stroke-width="1" fill="none" fill-rule="evenodd">
        <g id="design" transform="translate(-466.000000, -257.000000)">
            <g id="Group-7-Copy" transform="translate(302.000000, 247.000000)">
                <g id="ico-final-data" transform="translate(164.000000, 10.000000)">
                    <g id="Group" fill="#865FD5">
                        <circle id="Oval" cx="15" cy="15" r="15"></circle>
                    </g>
                    <path d="M13.7304688,21.3125 C13.874349,21.3125 13.9949544,21.2638346 14.0922852,21.1665039 C14.1896159,21.0691732 14.2382812,20.9485677 14.2382812,20.8046875 C14.2382812,20.6608073 14.1896159,20.5402018 14.0922852,20.4428711 C13.9949544,20.3455404 13.874349,20.296875 13.7304688,20.296875 L13.7304688,20.296875 L11.546875,20.296875 C10.9882812,20.296875 10.5100911,20.0979818 10.1123047,19.7001953 C9.71451823,19.3024089 9.515625,18.8242188 9.515625,18.265625 L9.515625,18.265625 L9.515625,11.359375 C9.515625,10.8007812 9.71451823,10.3225911 10.1123047,9.92480469 C10.5100911,9.52701823 10.9882812,9.328125 11.546875,9.328125 L11.546875,9.328125 L18.453125,9.328125 C19.0117188,9.328125 19.4899089,9.52701823 19.8876953,9.92480469 C20.2854818,10.3225911 20.484375,10.8007812 20.484375,11.359375 L20.484375,11.359375 L20.484375,13.8984375 C20.484375,14.0423177 20.5330404,14.1629232 20.6303711,14.2602539 C20.7277018,14.3575846 20.8483073,14.40625 20.9921875,14.40625 C21.1360677,14.40625 21.2566732,14.3575846 21.3540039,14.2602539 C21.4513346,14.1629232 21.5,14.0423177 21.5,13.8984375 L21.5,13.8984375 L21.5,11.359375 C21.5,10.9361979 21.4195964,10.5426432 21.2587891,10.1787109 C21.0979818,9.8063151 20.8800456,9.48258464 20.6049805,9.20751953 C20.3299154,8.93245443 20.0061849,8.71451823 19.6337891,8.55371094 C19.2698568,8.39290365 18.8763021,8.3125 18.453125,8.3125 L18.453125,8.3125 L11.546875,8.3125 C11.1236979,8.3125 10.7301432,8.39290365 10.3662109,8.55371094 C9.9938151,8.71451823 9.67008464,8.93245443 9.39501953,9.20751953 C9.11995443,9.48258464 8.90201823,9.8063151 8.74121094,10.1787109 C8.58040365,10.5426432 8.5,10.9361979 8.5,11.359375 L8.5,11.359375 L8.5,18.265625 C8.5,18.6888021 8.58040365,19.0823568 8.74121094,19.4462891 C8.90201823,19.8186849 9.11995443,20.1424154 9.39501953,20.4174805 C9.67008464,20.6925456 9.9938151,20.9104818 10.3662109,21.0712891 C10.7301432,21.2320964 11.1236979,21.3125 11.546875,21.3125 L11.546875,21.3125 L13.7304688,21.3125 Z M12.8925781,13.390625 C13.3157552,13.390625 13.6754557,13.242513 13.9716797,12.9462891 C14.2679036,12.6500651 14.4160156,12.2903646 14.4160156,11.8671875 C14.4160156,11.4440104 14.2679036,11.0843099 13.9716797,10.7880859 C13.6754557,10.491862 13.3157552,10.34375 12.8925781,10.34375 C12.469401,10.34375 12.1097005,10.491862 11.8134766,10.7880859 C11.5172526,11.0843099 11.3691406,11.4440104 11.3691406,11.8671875 C11.3691406,12.2903646 11.5172526,12.6500651 11.8134766,12.9462891 C12.1097005,13.242513 12.469401,13.390625 12.8925781,13.390625 Z M18.9609375,11.96875 C19.1048177,11.96875 19.2254232,11.9200846 19.3227539,11.8227539 C19.4200846,11.7254232 19.46875,11.6048177 19.46875,11.4609375 C19.46875,11.3170573 19.4200846,11.1964518 19.3227539,11.0991211 C19.2254232,11.0017904 19.1048177,10.953125 18.9609375,10.953125 L18.9609375,10.953125 L15.8125,10.953125 C15.6686198,10.953125 15.5480143,11.0017904 15.4506836,11.0991211 C15.3533529,11.1964518 15.3046875,11.3170573 15.3046875,11.4609375 C15.3046875,11.6048177 15.3533529,11.7254232 15.4506836,11.8227539 C15.5480143,11.9200846 15.6686198,11.96875 15.8125,11.96875 L15.8125,11.96875 L18.9609375,11.96875 Z M12.8925781,12.375 C12.7486979,12.375 12.6280924,12.3263346 12.5307617,12.2290039 C12.433431,12.1316732 12.3847656,12.0110677 12.3847656,11.8671875 C12.3847656,11.7233073 12.433431,11.6027018 12.5307617,11.5053711 C12.6280924,11.4080404 12.7486979,11.359375 12.8925781,11.359375 C13.0364583,11.359375 13.1570638,11.4080404 13.2543945,11.5053711 C13.3517253,11.6027018 13.4003906,11.7233073 13.4003906,11.8671875 C13.4003906,12.0110677 13.3517253,12.1316732 13.2543945,12.2290039 C13.1570638,12.3263346 13.0364583,12.375 12.8925781,12.375 Z M18.9609375,13.7460938 C19.1048177,13.7460938 19.2254232,13.6974284 19.3227539,13.6000977 C19.4200846,13.5027669 19.46875,13.3821615 19.46875,13.2382812 C19.46875,13.094401 19.4200846,12.9737956 19.3227539,12.8764648 C19.2254232,12.7791341 19.1048177,12.7304688 18.9609375,12.7304688 L15.8125,12.7304688 C15.6686198,12.7304688 15.5480143,12.7791341 15.4506836,12.8764648 C15.3533529,12.9737956 15.3046875,13.094401 15.3046875,13.2382812 C15.3046875,13.3821615 15.3533529,13.5027669 15.4506836,13.6000977 C15.5480143,13.6974284 15.6686198,13.7460938 15.8125,13.7460938 L18.9609375,13.7460938 Z M11.8896484,15.2949219 C12.008138,15.1848958 12.1393229,15.1023763 12.2832031,15.0473633 C12.4270833,14.9923503 12.5751953,14.9648438 12.7275391,14.9648438 L13.0576172,14.9648438 C13.2099609,14.9648438 13.3580729,14.9923503 13.5019531,15.0473633 C13.6458333,15.1023763 13.7770182,15.1848958 13.8955078,15.2949219 C13.9462891,15.3372396 14.0013021,15.3689779 14.0605469,15.3901367 C14.1197917,15.4112956 14.1790365,15.421875 14.2382812,15.421875 C14.3059896,15.421875 14.3736979,15.4070638 14.4414062,15.3774414 C14.5091146,15.347819 14.5683594,15.3076172 14.6191406,15.2568359 C14.7122396,15.1552734 14.7545573,15.034668 14.7460938,14.8950195 C14.7376302,14.7553711 14.6826172,14.6347656 14.5810547,14.5332031 C14.3694661,14.3470052 14.132487,14.203125 13.8701172,14.1015625 C13.6077474,14 13.3369141,13.9492188 13.0576172,13.9492188 L12.7275391,13.9492188 C12.4482422,13.9492188 12.1774089,14 11.9150391,14.1015625 C11.6526693,14.203125 11.4156901,14.3470052 11.2041016,14.5332031 C11.1025391,14.6347656 11.047526,14.7553711 11.0390625,14.8950195 C11.030599,15.034668 11.0729167,15.1552734 11.1660156,15.2568359 C11.2675781,15.3583984 11.3881836,15.4134115 11.527832,15.421875 C11.6674805,15.4303385 11.7880859,15.3880208 11.8896484,15.2949219 Z M15.8125,21.3125 C15.8294271,21.3125 15.8463542,21.3082682 15.8632812,21.2998047 L17.2978516,21.0205078 C17.6533203,20.9443359 17.991862,20.8216146 18.3134766,20.6523438 C18.6350911,20.4830729 18.9228516,20.2672526 19.1767578,20.0048828 L20.9541016,18.2275391 C21.1318359,18.0582682 21.2672526,17.859375 21.3603516,17.6308594 C21.4534505,17.4023438 21.5,17.1653646 21.5,16.9199219 C21.5,16.6744792 21.4534505,16.4375 21.3603516,16.2089844 C21.2672526,15.9804688 21.1318359,15.7815755 20.9541016,15.6123047 C20.7848307,15.4345703 20.5859375,15.2991536 20.3574219,15.2060547 C20.1289062,15.1129557 19.8919271,15.0664062 19.6464844,15.0664062 C19.4010417,15.0664062 19.1640625,15.1129557 18.9355469,15.2060547 C18.7070312,15.2991536 18.508138,15.4345703 18.3388672,15.6123047 L16.5615234,17.3896484 C16.2991536,17.6435547 16.0833333,17.9313151 15.9140625,18.2529297 C15.7447917,18.5745443 15.6220703,18.9130859 15.5458984,19.2685547 L15.2666016,20.703125 C15.2496745,20.7877604 15.2539062,20.8702799 15.2792969,20.9506836 C15.3046875,21.0310872 15.3470052,21.1009115 15.40625,21.1601562 C15.4485677,21.2109375 15.5014648,21.2490234 15.5649414,21.2744141 C15.628418,21.2998047 15.6940104,21.3125 15.7617188,21.3125 L15.8125,21.3125 L15.8125,21.3125 Z M16.4091797,20.1572266 L16.5488281,19.4716797 C16.5996094,19.2093099 16.6863607,18.9638672 16.809082,18.7353516 C16.9318034,18.5068359 17.086263,18.2994792 17.2724609,18.1132812 L19.0498047,16.3232422 C19.1344401,16.2470703 19.2275391,16.1878255 19.3291016,16.1455078 C19.4306641,16.1031901 19.5364583,16.0820312 19.6464844,16.0820312 C19.7565104,16.0820312 19.8623047,16.1031901 19.9638672,16.1455078 C20.0654297,16.1878255 20.1585286,16.2470703 20.2431641,16.3232422 C20.3193359,16.4078776 20.3785807,16.5009766 20.4208984,16.6025391 C20.4632161,16.7041016 20.484375,16.8098958 20.484375,16.9199219 C20.484375,17.0299479 20.4632161,17.1357422 20.4208984,17.2373047 C20.3785807,17.3388672 20.3193359,17.4319661 20.2431641,17.5166016 L18.453125,19.2939453 C18.2669271,19.4801432 18.0595703,19.6346029 17.8310547,19.7573242 C17.6025391,19.8800456 17.3570964,19.9667969 17.0947266,20.0175781 L16.4091797,20.1572266 Z M15.203125,17.3007812 C15.3470052,17.3007812 15.4676107,17.2521159 15.5649414,17.1547852 C15.6622721,17.0574544 15.7109375,16.936849 15.7109375,16.7929688 C15.7109375,16.6490885 15.6622721,16.5284831 15.5649414,16.4311523 C15.4676107,16.3338216 15.3470052,16.2851562 15.203125,16.2851562 L11.4960938,16.2851562 C11.3522135,16.2851562 11.2316081,16.3338216 11.1342773,16.4311523 C11.0369466,16.5284831 10.9882812,16.6490885 10.9882812,16.7929688 C10.9882812,16.936849 11.0369466,17.0574544 11.1342773,17.1547852 C11.2316081,17.2521159 11.3522135,17.3007812 11.4960938,17.3007812 L15.203125,17.3007812 Z M13.171875,19.078125 C13.3157552,19.078125 13.4363607,19.0294596 13.5336914,18.9321289 C13.6310221,18.8347982 13.6796875,18.7141927 13.6796875,18.5703125 C13.6796875,18.4264323 13.6310221,18.3058268 13.5336914,18.2084961 C13.4363607,18.1111654 13.3157552,18.0625 13.171875,18.0625 L11.4960938,18.0625 C11.3522135,18.0625 11.2316081,18.1111654 11.1342773,18.2084961 C11.0369466,18.3058268 10.9882812,18.4264323 10.9882812,18.5703125 C10.9882812,18.7141927 11.0369466,18.8347982 11.1342773,18.9321289 C11.2316081,19.0294596 11.3522135,19.078125 11.4960938,19.078125 L13.171875,19.078125 Z" id="" fill="#FFFFFF" fill-rule="nonzero"></path>
                </g>
            </g>
        </g>
    </g>
</svg>